<svg version="1.1" xmlns="http://www.w3.org/2000/svg" x="0px" y="0px" width="256px" height="256px" viewBox="0 0 256 256"
     overflow="visible" enable-background="new 0 0 256 256" xml:space="preserve">
    <title>SuperBricks</title>
    <rect fill="#52EF7A" width="256" height="256"/>
    <path fill="#2D2D2D" d="M111.3,167c0,22.3-22.3,22-22.3,22H55.7C33.4,189,33,167,33,167v-22h56C89,145,111.3,144.7,111.3,167z"/>
    <path fill="#2D2D2D" d="M145,89c-34,0-33.7,0-33.7,0l0,0c0,0,0-22-22.3-22H55.7c0,0-22.3-0.3-22.3,22s22.3,22,22.3,22h55.7
        c0,0,33.7,0.3,33.7,33.7v44.5c0,33.4-44.8,33.8-44.8,33.8h89c0,0,33.8-0.4,33.8-33.8v-44.5c0-33.4-33.4-33.4-33.4-33.4
        s33.4,0,33.4-22.3V66.8c0-33.4-33.8-33.8-33.8-33.8h-89c0,0,44.8,0.4,44.8,33.8V89z"/>
</svg>
